General
Complete name                    : 1x07 Las Consecuencias - The Legend of Korra .mp4
Format                           : MPEG-4
Format profile                   : Base Media / Version 2
Codec ID                         : mp42
File size                        : 817 MiB
Duration                         : 24mn 2s
Overall bit rate                 : 4 748 Kbps
Encoded date                     : UTC 2012-05-20 11:46:07
Tagged date                      : UTC 2012-05-20 11:46:34
Writing application              : mp4creator 1.6.1d

Video
ID                               : 1
Format                           : AVC
Format/Info                      : Advanced Video Codec
Format profile                   : High@L4.0
Format settings, CABAC           : No
Format settings, ReFrames        : 1 frame
Codec ID                         : avc1
Codec ID/Info                    : Advanced Video Coding
Duration                         : 24mn 2s
Bit rate mode                    : Variable
Bit rate                         : 4 620 Kbps
Width                            : 1 280 pixels
Height                           : 720 pixels
Display aspect ratio             : 16:9
Frame rate mode                  : Variable
Frame rate                       : 29.970 fps
Minimum frame rate               : 29.960 fps
Maximum frame rate               : 29.970 fps
Color space                      : YUV
Chroma subsampling               : 4:2:0
Bit depth                        : 8 bits
Scan type                        : Progressive
Bits/(Pixel*Frame)               : 0.167
Stream size                      : 795 MiB (97%)
Language                         : English
Encoded date                     : UTC 2012-05-20 11:46:07
Tagged date                      : UTC 2012-05-20 11:46:34

Audio
ID                               : 2
Format                           : AAC
Format/Info                      : Advanced Audio Codec
Format profile                   : LC
Codec ID                         : 40
Duration                         : 24mn 1s
Bit rate mode                    : Variable
Bit rate                         : 126 Kbps
Maximum bit rate                 : 251 Kbps
Channel(s)                       : 2 channels
Channel positions                : Front: L R
Sampling rate                    : 44.1 KHz
Compression mode                 : Lossy
Stream size                      : 21.6 MiB (3%)
Language                         : English
Encoded date                     : UTC 2012-05-20 11:46:34
Tagged date                      : UTC 2012-05-20 11:46:34
